{"accessors" : [{"bufferView" : 0, "byteOffset" : 0, "componentType" : 5123, "count" : 3060, "type" : "SCALAR", "max" : [627], "min" : [0]}, {"bufferView" : 1, "byteOffset" : 0, "componentType" : 5126, "count" : 628, "type" : "VEC3", "max" : [0.057500001043081284, 0.20229999721050262, 0.034699998795986176], "min" : [-0.05739999935030937, 0.16279999911785126, -0.08020000159740448], "name" : "POSITION"}, {"bufferView" : 1, "byteOffset" : 12, "componentType" : 5126, "count" : 628, "type" : "VEC2", "max" : [1.1339999437332153, 1.058899998664856], "min" : [-0.1340000033378601, -0.30229997634887695], "name" : "TEXCOORD_0"}, {"bufferView" : 0, "byteOffset" : 6120, "componentType" : 5123, "count" : 984, "type" : "SCALAR", "max" : [353], "min" : [0]}, {"bufferView" : 2, "byteOffset" : 0, "componentType" : 5126, "count" : 354, "type" : "VEC3", "max" : [0.07440000027418137, 0.1662999987602234, 0.05339999869465828], "min" : [-0.07919999957084656, -4.3099426250137185E-09, -0.09860000014305115], "name" : "POSITION"}, {"bufferView" : 2, "byteOffset" : 12, "componentType" : 5126, "count" : 354, "type" : "VEC2", "max" : [0.9994999766349792, 0.9994999766349792], "min" : [0.0005000000237487257, 0.000500023365020752], "name" : "TEXCOORD_0"}, {"bufferView" : 0, "byteOffset" : 8088, "componentType" : 5123, "count" : 160440, "type" : "SCALAR", "max" : [65530], "min" : [0]}, {"bufferView" : 3, "byteOffset" : 0, "componentType" : 5126, "count" : 65531, "type" : "VEC3", "max" : [0.14810000360012054, 0.4372999966144562, 0.09860000014305115], "min" : [-0.14810000360012054, 0.1873999983072281, -0.07509999722242355], "name" : "POSITION"}, {"bufferView" : 3, "byteOffset" : 12, "componentType" : 5126, "count" : 65531, "type" : "VEC2", "max" : [1.9606000185012817, 1.4837000370025635], "min" : [-0.9613000154495239, -1.6603999137878418], "name" : "TEXCOORD_0"}, {"bufferView" : 0, "byteOffset" : 328968, "componentType" : 5123, "count" : 186735, "type" : "SCALAR", "max" : [65530], "min" : [0]}, {"bufferView" : 4, "byteOffset" : 0, "componentType" : 5126, "count" : 65531, "type" : "VEC3", "max" : [0.14810000360012054, 0.4372999966144562, 0.09860000014305115], "min" : [-0.14810000360012054, 0.1873999983072281, -0.07509999722242355], "name" : "POSITION"}, {"bufferView" : 4, "byteOffset" : 12, "componentType" : 5126, "count" : 65531, "type" : "VEC2", "max" : [1.9606000185012817, 1.4837000370025635], "min" : [-0.9624999761581421, -1.6603999137878418], "name" : "TEXCOORD_0"}, {"bufferView" : 0, "byteOffset" : 702440, "componentType" : 5123, "count" : 142701, "type" : "SCALAR", "max" : [39375], "min" : [0]}, {"bufferView" : 5, "byteOffset" : 0, "componentType" : 5126, "count" : 39376, "type" : "VEC3", "max" : [0.14800000190734863, 0.4372999966144562, 0.09849999845027924], "min" : [-0.14810000360012054, 0.1875, -0.07540000230073929], "name" : "POSITION"}, {"bufferView" : 5, "byteOffset" : 12, "componentType" : 5126, "count" : 39376, "type" : "VEC2", "max" : [1.9515000581741333, 1.4769999980926514], "min" : [-0.9559999704360962, -1.655400037765503], "name" : "TEXCOORD_0"}], "asset" : {"generator" : "Aspose.3D 24.6.0", "version" : "2.0"}, "buffers" : [{"uri" : "buffer.bin", "byteLength" : 4416268}], "bufferViews" : [{"buffer" : 0, "byteOffset" : 0, "byteLength" : 987844, "target" : 34963}, {"buffer" : 0, "byteOffset" : 987848, "byteLength" : 12560, "byteStride" : 20, "target" : 34962}, {"buffer" : 0, "byteOffset" : 1000412, "byteLength" : 7080, "byteStride" : 20, "target" : 34962}, {"buffer" : 0, "byteOffset" : 1007496, "byteLength" : 1310620, "byteStride" : 20, "target" : 34962}, {"buffer" : 0, "byteOffset" : 2318120, "byteLength" : 1310620, "byteStride" : 20, "target" : 34962}, {"buffer" : 0, "byteOffset" : 3628744, "byteLength" : 787520, "byteStride" : 20, "target" : 34962}], "materials" : [{"name" : "wire_006135006", "pbrMetallicRoughness" : {"baseColorFactor" : [0.0196078431372549, 0.5254901960784314, 0.0196078431372549, 1], "metallicFactor" : 1, "roughnessFactor" : 1}, "emissiveFactor" : [0, 0, 0], "alphaMode" : "OPAQUE", "doubleSided" : false}, {"name" : "wire_225143087", "pbrMetallicRoughness" : {"baseColorFactor" : [0.8823529411764706, 0.5607843137254902, 0.3411764705882353, 1], "metallicFactor" : 1, "roughnessFactor" : 1}, "emissiveFactor" : [0, 0, 0], "alphaMode" : "OPAQUE", "doubleSided" : false}, {"name" : "wire_224198087", "pbrMetallicRoughness" : {"baseColorFactor" : [0.8745098039215686, 0.7764705882352941, 0.3411764705882353, 1], "metallicFactor" : 1, "roughnessFactor" : 1}, "emissiveFactor" : [0, 0, 0], "alphaMode" : "OPAQUE", "doubleSided" : false}], "meshes" : [{"primitives" : [{"attributes" : {"POSITION" : 1, "TEXCOORD_0" : 2}, "indices" : 0, "material" : 0, "mode" : 4}], "name" : "Sphere"}, {"primitives" : [{"attributes" : {"POSITION" : 4, "TEXCOORD_0" : 5}, "indices" : 3, "material" : 1, "mode" : 4}], "name" : "Postament"}, {"primitives" : [{"attributes" : {"POSITION" : 7, "TEXCOORD_0" : 8}, "indices" : 6, "material" : 2, "mode" : 4}], "name" : "sub01"}, {"primitives" : [{"attributes" : {"POSITION" : 10, "TEXCOORD_0" : 11}, "indices" : 9, "material" : 2, "mode" : 4}], "name" : "sub02"}, {"primitives" : [{"attributes" : {"POSITION" : 13, "TEXCOORD_0" : 14}, "indices" : 12, "material" : 2, "mode" : 4}], "name" : "sub03"}], "nodes" : [{"matrix" : [-1, 0, 0, 0, 0, 1, -4.371138828673793E-08, 0, 0, -4.371138828673793E-08, -1, 0, 0, -0.2186499983072281, 9.557495239675973E-09, 1], "mesh" : 0, "name" : "Sphere"}, {"matrix" : [-1, 0, 0, 0, 0, 1, -4.371138828673793E-08, 0, 0, -4.371138828673793E-08, -1, 0, 0, -0.2186499983072281, 9.557495239675973E-09, 1], "mesh" : 1, "name" : "Postament"}, {"matrix" : [-1, 0, 0, 0, 0, 1, -4.371138828673793E-08, 0, 0, -4.371138828673793E-08, -1, 0, 0, -0.2186499983072281, 9.557495239675973E-09, 1], "mesh" : 2, "name" : "sub01"}, {"matrix" : [-1, 0, 0, 0, 0, 1, -4.371138828673793E-08, 0, 0, -4.371138828673793E-08, -1, 0, 0, -0.2186499983072281, 9.557495239675973E-09, 1], "mesh" : 3, "name" : "sub02"}, {"matrix" : [-1, 0, 0, 0, 0, 1, -4.371138828673793E-08, 0, 0, -4.371138828673793E-08, -1, 0, 0, -0.2186499983072281, 9.557495239675973E-09, 1], "mesh" : 4, "name" : "sub03"}], "scene" : 0, "scenes" : [{"nodes" : [0, 1, 2, 3, 4]}]}